HIERARCHY
ROOT Hips
{
  OFFSET 363.916 89.4436 202.859
  CHANNELS 6 Xposition Yposition Zposition Zrotation Xrotation Yrotation
  JOINT RightUpLeg
  {
    OFFSET -9.22681 -1.41939 0.059526
    CHANNELS 3 Zrotation Xrotation Yrotation
    JOINT RightLeg
    {
      OFFSET 0.076897 -41.8891 0.179098
      CHANNELS 3 Zrotation Xrotation Yrotation
      JOINT RightFoot
      {
        OFFSET -0.0130714 -43.0092 0.527065
        CHANNELS 3 Zrotation Xrotation Yrotation
        End Site
        {
          OFFSET 0 -7.69 17.5
        }
      }
    }
  }
  JOINT LeftUpLeg
  {
    OFFSET 9.19333 -1.7604 -0.077889
    CHANNELS 3 Zrotation Xrotation Yrotation
    JOINT LeftLeg
    {
      OFFSET -0.0291634 -41.859 -0.15197
      CHANNELS 3 Zrotation Xrotation Yrotation
      JOINT LeftFoot
      {
        OFFSET 0.141288 -40.5593 0.458407
        CHANNELS 3 Zrotation Xrotation Yrotation
        End Site
        {
          OFFSET 0 -7.69 17.5
        }
      }
    }
  }
  JOINT Spine
  {
    OFFSET 0.215607 14.2961 0.04713
    CHANNELS 3 Zrotation Xrotation Yrotation
    JOINT Spine1
    {
      OFFSET 0.127345 9.70675 0.00151561
      CHANNELS 3 Zrotation Xrotation Yrotation
      JOINT Spine2
      {
        OFFSET 0.0493166 10.1169 -0.00299987
        CHANNELS 3 Zrotation Xrotation Yrotation
        JOINT Spine3
        {
          OFFSET 0.0599611 9.70888 0.0197622
          CHANNELS 3 Zrotation Xrotation Yrotation
          JOINT Neck
          {
            OFFSET 0.305156 10.372 0.0704915
            CHANNELS 3 Zrotation Xrotation Yrotation
            JOINT Head
            {
              OFFSET 0.288394 9.47974 0.0406202
              CHANNELS 3 Zrotation Xrotation Yrotation
              End Site
              {
                OFFSET 0 15.95 0
              }
            }
          }
          JOINT RightShoulder
          {
            OFFSET -3.14873 6.92098 0.0285763
            CHANNELS 3 Zrotation Xrotation Yrotation
            JOINT RightArm
            {
              OFFSET -12.7049 -0.00288304 0.0369593
              CHANNELS 3 Zrotation Xrotation Yrotation
              JOINT RightForeArm
              {
                OFFSET -26.4954 -0.160471 0.0134548
                CHANNELS 3 Zrotation Xrotation Yrotation
                JOINT RightHand
                {
                  OFFSET -26.0026 -0.0211725 -0.0218708
                  CHANNELS 3 Zrotation Xrotation Yrotation
                  JOINT RightHandThumb1
                  {
                    OFFSET -2.48905 0.190105 3.12053
                    CHANNELS 3 Zrotation Xrotation Yrotation
                    JOINT RightHandThumb2
                    {
                      OFFSET -3.68274 0 0
                      CHANNELS 3 Zrotation Xrotation Yrotation
                      JOINT RightHandThumb3
                      {
                        OFFSET -2.55832 0 0
                        CHANNELS 3 Zrotation Xrotation Yrotation
                        End Site
                        {
                          OFFSET -2.194 0 0
                        }
                      }
                    }
                  }
                  JOINT RightInHandIndex
                  {
                    OFFSET -3.22368 0.508421 1.97842
                    CHANNELS 3 Zrotation Xrotation Yrotation
                    JOINT RightHandIndex1
                    {
                      OFFSET -5.21684 -0.091368 0.999158
                      CHANNELS 3 Zrotation Xrotation Yrotation
                      JOINT RightHandIndex2
                      {
                        OFFSET -3.61937 0 0
                        CHANNELS 3 Zrotation Xrotation Yrotation
                        JOINT RightHandIndex3
                        {
                          OFFSET -2.0521 0 0
                          CHANNELS 3 Zrotation Xrotation Yrotation
                          End Site
                          {
                            OFFSET -1.805 0 0
                          }
                        }
                      }
                    }
                  }
                  JOINT RightInHandMiddle
                  {
                    OFFSET -3.38211 0.517263 0.756737
                    CHANNELS 3 Zrotation Xrotation Yrotation
                    JOINT RightHandMiddle1
                    {
                      OFFSET -5.17411 -0.084 0.313895
                      CHANNELS 3 Zrotation Xrotation Yrotation
                      JOINT RightHandMiddle2
                      {
                        OFFSET -3.94947 0 0
                        CHANNELS 3 Zrotation Xrotation Yrotation
                        JOINT RightHandMiddle3
                        {
                          OFFSET -2.47579 0 0
                          CHANNELS 3 Zrotation Xrotation Yrotation
                          End Site
                          {
                            OFFSET -1.975 0 0
                          }
                        }
                      }
                    }
                  }
                  JOINT RightInHandRing
                  {
                    OFFSET -3.36516 0.537895 -0.128947
                    CHANNELS 3 Zrotation Xrotation Yrotation
                    JOINT RightHandRing1
                    {
                      OFFSET -4.63474 -0.022105 -0.478947
                      CHANNELS 3 Zrotation Xrotation Yrotation
                      JOINT RightHandRing2
                      {
                        OFFSET -3.44238 0 0
                        CHANNELS 3 Zrotation Xrotation Yrotation
                        JOINT RightHandRing3
                        {
                          OFFSET -2.3881 0 0
                          CHANNELS 3 Zrotation Xrotation Yrotation
                          End Site
                          {
                            OFFSET -1.857 0 0
                          }
                        }
                      }
                    }
                  }
                  JOINT RightInHandPinky
                  {
                    OFFSET -3.16105 0.469368 -1.20179
                    CHANNELS 3 Zrotation Xrotation Yrotation
                    JOINT RightHandPinky1
                    {
                      OFFSET -4.14105 -0.022105 -1.09053
                      CHANNELS 3 Zrotation Xrotation Yrotation
                      JOINT RightHandPinky2
                      {
                        OFFSET -2.75653 0 0
                        CHANNELS 3 Zrotation Xrotation Yrotation
                        JOINT RightHandPinky3
                        {
                          OFFSET -1.74189 0 0
                          CHANNELS 3 Zrotation Xrotation Yrotation
                          End Site
                          {
                            OFFSET -1.645 0 0
                          }
                        }
                      }
                    }
                  }
                }
              }
            }
          }
          JOINT LeftShoulder
          {
            OFFSET 3.26342 6.92519 -0.0174379
            CHANNELS 3 Zrotation Xrotation Yrotation
            JOINT LeftArm
            {
              OFFSET 12.8742 -0.0269705 -0.0666419
              CHANNELS 3 Zrotation Xrotation Yrotation
              JOINT LeftForeArm
              {
                OFFSET 26.5114 0.000826062 -0.052783
                CHANNELS 3 Zrotation Xrotation Yrotation
                JOINT LeftHand
                {
                  OFFSET 25.9941 -0.0689373 0.00603348
                  CHANNELS 3 Zrotation Xrotation Yrotation
                  JOINT LeftHandThumb1
                  {
                    OFFSET 2.48905 0.190105 3.12053
                    CHANNELS 3 Zrotation Xrotation Yrotation
                    JOINT LeftHandThumb2
                    {
                      OFFSET 3.68274 0 0
                      CHANNELS 3 Zrotation Xrotation Yrotation
                      JOINT LeftHandThumb3
                      {
                        OFFSET 2.55832 0 0
                        CHANNELS 3 Zrotation Xrotation Yrotation
                        End Site
                        {
                          OFFSET 2.194 0 0
                        }
                      }
                    }
                  }
                  JOINT LeftInHandIndex
                  {
                    OFFSET 3.22368 0.508421 1.97842
                    CHANNELS 3 Zrotation Xrotation Yrotation
                    JOINT LeftHandIndex1
                    {
                      OFFSET 5.21684 -0.091368 0.999158
                      CHANNELS 3 Zrotation Xrotation Yrotation
                      JOINT LeftHandIndex2
                      {
                        OFFSET 3.61937 0 0
                        CHANNELS 3 Zrotation Xrotation Yrotation
                        JOINT LeftHandIndex3
                        {
                          OFFSET 2.0521 0 0
                          CHANNELS 3 Zrotation Xrotation Yrotation
                          End Site
                          {
                            OFFSET 1.805 0 0
                          }
                        }
                      }
                    }
                  }
                  JOINT LeftInHandMiddle
                  {
                    OFFSET 3.38211 0.517263 0.756737
                    CHANNELS 3 Zrotation Xrotation Yrotation
                    JOINT LeftHandMiddle1
                    {
                      OFFSET 5.17411 -0.084 0.313895
                      CHANNELS 3 Zrotation Xrotation Yrotation
                      JOINT LeftHandMiddle2
                      {
                        OFFSET 3.94947 0 0
                        CHANNELS 3 Zrotation Xrotation Yrotation
                        JOINT LeftHandMiddle3
                        {
                          OFFSET 2.47579 0 0
                          CHANNELS 3 Zrotation Xrotation Yrotation
                          End Site
                          {
                            OFFSET 1.975 0 0
                          }
                        }
                      }
                    }
                  }
                  JOINT LeftInHandRing
                  {
                    OFFSET 3.36516 0.537895 -0.128947
                    CHANNELS 3 Zrotation Xrotation Yrotation
                    JOINT LeftHandRing1
                    {
                      OFFSET 4.63474 -0.022105 -0.478947
                      CHANNELS 3 Zrotation Xrotation Yrotation
                      JOINT LeftHandRing2
                      {
                        OFFSET 3.44238 0 0
                        CHANNELS 3 Zrotation Xrotation Yrotation
                        JOINT LeftHandRing3
                        {
                          OFFSET 2.3881 0 0
                          CHANNELS 3 Zrotation Xrotation Yrotation
                          End Site
                          {
                            OFFSET 1.857 0 0
                          }
                        }
                      }
                    }
                  }
                  JOINT LeftInHandPinky
                  {
                    OFFSET 3.16105 0.469368 -1.20179
                    CHANNELS 3 Zrotation Xrotation Yrotation
                    JOINT LeftHandPinky1
                    {
                      OFFSET 4.14105 -0.022105 -1.09053
                      CHANNELS 3 Zrotation Xrotation Yrotation
                      JOINT LeftHandPinky2
                      {
                        OFFSET 2.75653 0 0
                        CHANNELS 3 Zrotation Xrotation Yrotation
                        JOINT LeftHandPinky3
                        {
                          OFFSET 1.74189 0 0
                          CHANNELS 3 Zrotation Xrotation Yrotation
                          End Site
                          {
                            OFFSET 1.645 0 0
                          }
                        }
                      }
                    }
                  }
                }
              }
            }
          }
        }
      }
    }
  }
}
MOTION
Frames:	4
Frame Time:	0.00833333
356.643 87.4743 203.808 22.1961 2.22433 -142.301 35.5024 -32.2671 35.83 -6.57968 8.55535 -1.77754 9.48299 17.4256 55.2261 30.6414 -12.0855 19.7397 -27.928 40.1065 32.2143 8.09067 -26.9292 16.9384 -2.48618 -2.57362 -8.74604 -0.585266 -0.714416 -2.16699 -0.985529 -1.2057 -3.57326 -0.617279 -0.352613 2.75936 -0.0137685 -6.05494 42.8163 -9.94221 9.20837 26.6419 4.3111 4.90353 -2.29202 46.7796 -66.8332 19.9814 42.8789 14.015 114.875 17.1774 -11.4074 10.6223 28.184 10.7294 19.1592 -5.54545e-15 -3.97569e-15 -10 -1.74601e-14 0 -10 -9.93923e-17 1.59028e-15 -5.56597e-15 19.9818 0.871897 2.3964 24 -1.09332e-14 -3.18055e-14 20 -1.51871e-13 -8.84194e-13 -9.93923e-17 1.59028e-15 -5.56597e-15 20 -1.59028e-15 -9.54166e-15 24 -7.95139e-15 -3.02153e-14 20 -3.762e-14 -2.2741e-13 -9.93923e-17 1.59028e-15 -5.56597e-15 19.9748 -1.02565 -2.81938 24 3.18055e-15 -1.74931e-14 20 -3.29983e-14 -1.51076e-13 -9.93923e-17 1.59028e-15 -5.56597e-15 19.7815 -3.00948 -8.30515 24 4.77083e-15 -3.69739e-14 20 -4.77083e-15 -4.29375e-14 2.6957 -17.2704 -52.7566 -12.703 28.6823 -106.173 46.9415 -9.25739 -34.0661 -12.3714 -11.0105 -16.9959 -28.184 10.7294 -19.1592 3.79044e-15 -3.18055e-15 10 -5.74131e-15 -6.36111e-15 10 6.55989e-15 0 -1.59028e-15 -19.9818 0.871897 -2.3964 -24 1.59028e-15 4.77083e-15 -20 3.18055e-15 2.73329e-15 6.55989e-15 0 -1.59028e-15 -20 0 4.77083e-15 -24 -1.59028e-15 1.59028e-15 -20 -6.36111e-15 -4.77083e-15 6.55989e-15 0 -1.59028e-15 -19.9748 -1.02565 2.81938 -24 1.59028e-15 1.11816e-15 -20 -1.59028e-15 -3.97569e-16 6.55989e-15 0 -1.59028e-15 -19.7815 -3.00948 8.30515 -24 5.56597e-15 -7.95139e-16 -20 -3.97569e-16 -7.95139e-15 
356.679 87.4853 203.763 22.273 2.30013 -142.285 35.5759 -32.2659 35.844 -6.552 8.57814 -1.84063 9.45615 17.3919 55.2117 30.9262 -12.0078 19.3738 -28.3181 39.9229 32.4832 8.13689 -26.83 16.9835 -2.52462 -2.64885 -8.77723 -0.593572 -0.734256 -2.16646 -0.999569 -1.23863 -3.57198 -0.615596 -0.348234 2.75961 -0.0243403 -5.99878 42.7864 -9.9088 9.21959 26.635 4.17458 4.89944 -2.27689 46.679 -66.8025 19.9265 41.9707 13.7399 115.053 17.1203 -11.5845 10.519 28.184 10.7294 19.1592 -9.30699e-16 1.59028e-15 -10 -1.47406e-14 3.97569e-15 -10 -4.67144e-15 3.18055e-15 -3.97569e-15 19.9818 0.871897 2.3964 24 -9.24349e-15 -3.02153e-14 20 -1.51871e-13 -8.81014e-13 -4.67144e-15 3.18055e-15 -3.97569e-15 20 0 -9.54166e-15 24 -7.95139e-15 -3.02153e-14 20 -3.8266e-14 -2.24229e-13 -4.67144e-15 3.18055e-15 -3.97569e-15 19.9748 -1.02565 -2.81938 24 2.38542e-15 -1.66979e-14 20 -3.22031e-14 -1.52667e-13 -4.67144e-15 3.18055e-15 -3.97569e-15 19.7815 -3.00948 -8.30515 24 4.77083e-15 -3.61788e-14 20 -4.77083e-15 -3.97569e-14 2.70579 -17.2678 -52.7802 -12.6782 28.4593 -106.251 46.788 -9.35631 -33.9084 -12.4541 -11.1325 -17.3311 -28.184 10.7294 -19.1592 8.63487e-15 -3.18055e-15 10 -4.08176e-15 -3.18055e-15 10 5.76476e-15 1.59028e-15 -4.77083e-15 -19.9818 0.871897 -2.3964 -24 0 5.56597e-15 -20 -3.18055e-15 9.93923e-16 5.76476e-15 1.59028e-15 -4.77083e-15 -20 -3.18055e-15 5.56597e-15 -24 3.18055e-15 1.98785e-15 -20 -1.59028e-15 -7.15625e-15 5.76476e-15 1.59028e-15 -4.77083e-15 -19.9748 -1.02565 2.81938 -24 1.59028e-15 2.48481e-15 -20 -3.18055e-15 -1.19271e-15 5.76476e-15 1.59028e-15 -4.77083e-15 -19.7815 -3.00948 8.30515 -24 7.15625e-15 -7.95139e-16 -20 7.95139e-16 -7.95139e-15 
356.714 87.4916 203.715 22.3732 2.37957 -142.3 35.6675 -32.2655 35.8734 -6.48779 8.59135 -1.89148 9.39943 17.3443 55.1937 31.0859 -11.983 19.3803 -28.2824 39.9429 32.3499 8.1552 -26.7792 17.03 -2.54479 -2.74319 -8.76594 -0.597343 -0.757707 -2.16589 -1.00625 -1.27708 -3.57065 -0.613404 -0.344964 2.75985 -0.0383839 -5.946 42.7427 -9.88612 9.23957 26.6208 4.04738 4.92037 -2.25297 46.5772 -66.8163 19.847 41.065 13.4286 115.273 17.1445 -11.9039 10.5639 28.184 10.7294 19.1592 -4.44073e-15 0 -10 -2.11104e-14 -2.38542e-15 -10 -2.98177e-16 2.38542e-15 -3.18055e-15 19.9818 0.871897 2.3964 24 -9.98893e-15 -3.49861e-14 20 -1.52269e-13 -8.82604e-13 -2.98177e-16 2.38542e-15 -3.18055e-15 20 -7.95139e-16 -7.95139e-15 24 -8.34896e-15 -3.18055e-14 20 -3.86636e-14 -2.25819e-13 -2.98177e-16 2.38542e-15 -3.18055e-15 19.9748 -1.02565 -2.81938 24 1.59028e-15 -1.82882e-14 20 -3.10104e-14 -1.51871e-13 -2.98177e-16 2.38542e-15 -3.18055e-15 19.7815 -3.00948 -8.30515 24 3.18055e-15 -3.63776e-14 20 -7.15625e-15 -3.97569e-14 2.75233 -17.2484 -52.8618 -12.7161 28.2017 -106.247 46.6219 -9.46964 -33.7587 -12.533 -11.2136 -17.6709 -28.184 10.7294 -19.1592 1.36822e-15 -3.18055e-15 10 -9.48701e-15 0 10 8.34896e-15 0 -3.18055e-15 -19.9818 0.871897 -2.3964 -24 3.18055e-15 5.56597e-15 -20 -1.59028e-15 2.25186e-15 8.34896e-15 0 -3.18055e-15 -20 -1.59028e-15 3.18055e-15 -24 1.59028e-15 1.59028e-15 -20 -6.36111e-15 -6.75868e-15 8.34896e-15 0 -3.18055e-15 -19.9748 -1.02565 2.81938 -24 3.18055e-15 2.28602e-15 -20 -1.59028e-15 -0 8.34896e-15 0 -3.18055e-15 -19.7815 -3.00948 8.30515 -24 4.77083e-15 -3.97569e-16 -20 -7.95139e-16 -7.95139e-15 
356.747 87.4977 203.661 22.4801 2.46513 -142.3 35.7409 -32.2665 35.8492 -6.41419 8.59726 -1.91124 9.29066 17.2903 55.1813 31.2566 -11.9627 19.4128 -28.2587 39.9912 32.2566 8.15729 -26.7787 17.0371 -2.57282 -2.814 -8.77737 -0.604379 -0.775939 -2.16532 -1.01631 -1.30719 -3.56932 -0.611133 -0.342161 2.76007 -0.0449812 -5.90956 42.7235 -9.85455 9.22897 26.6098 3.99616 4.92474 -2.25903 46.5439 -66.6925 19.5695 39.1105 13.0312 116.479 16.8976 -13.1847 10.314 28.184 10.7294 19.1592 -1.46735e-14 -7.95139e-16 -10 -2.14524e-14 -3.18055e-15 -10 -1.88845e-15 3.97569e-15 -3.97569e-15 19.9818 0.871897 2.3964 24 -9.51682e-15 -3.49861e-14 20 -1.53859e-13 -8.85784e-13 -1.88845e-15 3.97569e-15 -3.97569e-15 20 7.95139e-16 -1.03368e-14 24 -9.14409e-15 -3.02153e-14 20 -3.89618e-14 -2.2741e-13 -1.88845e-15 3.97569e-15 -3.97569e-15 19.9748 -1.02565 -2.81938 24 2.38542e-15 -1.82882e-14 20 -3.18055e-14 -1.53462e-13 -1.88845e-15 3.97569e-15 -3.97569e-15 19.7815 -3.00948 -8.30515 24 4.77083e-15 -3.73715e-14 20 -7.95139e-15 -4.13472e-14 2.83286 -17.2656 -52.7594 -12.7191 28.0012 -106.361 46.455 -9.55259 -33.618 -12.6044 -11.2626 -18.0168 -28.184 10.7294 -19.1592 4.03702e-15 0 10 -5.09102e-15 -3.18055e-15 10 4.17448e-15 7.95139e-16 -1.59028e-15 -19.9818 0.871897 -2.3964 -24 1.59028e-15 7.95139e-15 -20 0 2.55935e-15 4.17448e-15 7.95139e-16 -1.59028e-15 -20 -6.36111e-15 5.56597e-15 -24 6.36111e-15 2.38542e-15 -20 -4.77083e-15 -7.55382e-15 4.17448e-15 7.95139e-16 -1.59028e-15 -19.9748 -1.02565 2.81938 -24 0 1.59028e-15 -20 -6.36111e-15 3.97569e-16 4.17448e-15 7.95139e-16 -1.59028e-15 -19.7815 -3.00948 8.30515 -24 6.36111e-15 -0 -20 7.95139e-16 -8.74653e-15 
